# xmcd
#
# Track frame offsets:
#	150
#	13932
#	27080
#	45217
#	58517
#	70765
#	84025
#	96295
#	107607
#	125657
#	134932
#	156345
#	183552
#	203882
#	216067
#	226865
#	242805
#	252732
#	266655
#	277317
#	294890
#
# Disc length: 4120 seconds
#
# Revision: 2
# Processed by: cddbd v1.5.2PL0 Copyright (c) Steve Scherf et al.
# Submitted via: audiograbber 1.82.02
#
DISCID=38101615
DTITLE=Robert McCoy - Bye Bye Baby
DYEAR=2002
DGENRE=Blues
TTITLE0=Bye Bye Baby
TTITLE1=Let's Get Together
TTITLE2=Pratt City Special
TTITLE3=Goin' Down Slow
TTITLE4=Church Bell Blues
TTITLE5=Gone Mother Blues
TTITLE6=Jump Steady Blues
TTITLE7=Straight Alky Blues
TTITLE8=Washington Heights
TTITLE9=Rockin' With Red
TTITLE10=Louise Louise Blues
TTITLE11=You Got To Reap What You Sow
TTITLE12=Call The Wagon
TTITLE13=All In All Baby
TTITLE14=There'll Be Some Changes Made
TTITLE15=Lonesome And Blue
TTITLE16=Mr. Freddie Blues
TTITLE17=Love Hides All Faults
TTITLE18=Sent For You Yesterday
TTITLE19=Almighty Rambling
TTITLE20=Let's Go Get Stoned
EXTD=
EXTT0=
EXTT1=
EXTT2=
EXTT3=
EXTT4=
EXTT5=
EXTT6=
EXTT7=
EXTT8=
EXTT9=
EXTT10=
EXTT11=
EXTT12=
EXTT13=
EXTT14=
EXTT15=
EXTT16=
EXTT17=
EXTT18=
EXTT19=
EXTT20=
PLAYORDER=
